# xmcd
#
# Track frame offsets:
# 150
# 16770
# 28155
# 41957
# 58212
# 71475
# 87292
# 103740
# 118987
# 134032
# 148542
# 166190
# 177432
# 190452
#
# Disc length: 2739 seconds
#
#
# Revision: 0
# Processed by: cddbd v1.5PL3 Copyright (c) Steve Scherf et al.
# Submitted via: FreeRIP 2.40 
#
DISCID=d40ab10e
DTITLE=varial - Hollands op z'n best 7
DYEAR=1992
DGENRE=
TTITLE0=Henk Wijngaard - Kijk uit, hier ben ik
TTITLE1=Hanny - Sex, mannen en geld
TTITLE2=Dries Roelvink - Jij bent m'n alles
TTITLE3=The new four - Samen op 'n eiland
TTITLE4=Arne Jansen - Zeg 'ns meisje
TTITLE5=Carien and Ronald - Ergens waar je thuis kunt zijn
TTITLE6=Thijs van der Molen - Het leven is goed in m'n brabantse land
TTITLE7=Nelleke Brzoskowski - Mijn dorpje
TTITLE8=De Groothandel and Co - Diana
TTITLE9=Wolter Kroes - Ik mis je elke dag 'n beetje meer
TTITLE10=Lee Ann - Jij bent het einde
TTITLE11=Arie Ribbens - Ik blijf toch vrijgezel
TTITLE12=Bolle Jan and Mein - De bedelaar van parijs
TTITLE13=De Sjawi's - Uit munnen tuin
EXTD=
EXTT0=
EXTT1=
EXTT2=
EXTT3=
EXTT4=
EXTT5=
EXTT6=
EXTT7=
EXTT8=
EXTT9=
EXTT10=
EXTT11=
EXTT12=
EXTT13=
PLAYORDER=
